<?xml version="1.0" encoding="UTF-8" standalone="no"?>
<!DOCTYPE svg PUBLIC "-//W3C//DTD SVG 1.1//EN" "http://www.w3.org/Graphics/SVG/1.1/DTD/svg11.dtd">
<svg version="1.1" xmlns="http://www.w3.org/2000/svg" xmlns:xlink="http://www.w3.org/1999/xlink" preserveAspectRatio="xMidYMid meet" viewBox="37.74999999999999 -1 566.5 644" width="562.5" height="640"><defs><path d="M330.75 75.44L336.04 75.97L341.26 76.72L346.42 77.67L351.5 78.82L356.51 80.17L361.44 81.7L366.28 83.43L371.04 85.33L375.7 87.41L380.27 89.67L384.73 92.1L389.09 94.69L393.33 97.45L397.46 100.36L401.48 103.42L405.37 106.63L409.13 109.99L412.76 113.49L416.26 117.12L419.62 120.88L422.83 124.77L425.89 128.79L428.8 132.92L431.56 137.16L434.15 141.52L436.58 145.98L438.84 150.55L440.92 155.21L442.82 159.97L444.55 164.81L446.08 169.74L447.43 174.75L448.58 179.83L449.53 184.99L450.28 190.21L450.81 195.5L451.14 200.85L451.25 206.25L451.2 208.57L451.06 210.86L450.83 213.12L450.51 215.36L450.11 217.57L449.61 219.75L449.04 221.9L448.38 224.01L447.64 226.09L446.82 228.12L445.93 230.12L444.96 232.08L443.92 233.99L442.81 235.86L441.63 237.68L440.38 239.45L439.07 241.17L437.69 242.84L436.25 244.45L434.76 246.01L433.2 247.5L431.59 248.94L429.92 250.32L428.2 251.63L426.43 252.88L424.61 254.06L422.74 255.17L420.83 256.21L418.87 257.18L416.87 258.07L414.84 258.89L412.76 259.63L410.65 260.29L408.5 260.86L406.32 261.36L404.11 261.76L401.87 262.08L399.61 262.31L397.32 262.45L395 262.5L393.92 262.49L392.85 262.46L391.78 262.41L390.72 262.34L389.66 262.25L388.61 262.14L387.57 262.01L386.53 261.86L385.49 261.7L384.47 261.51L383.45 261.31L382.43 261.08L381.43 260.84L380.43 260.58L379.43 260.31L378.45 260.01L377.47 259.7L376.5 259.37L375.54 259.03L374.59 258.66L373.64 258.28L372.7 257.89L371.77 257.48L370.86 257.05L369.94 256.6L369.04 256.14L368.15 255.66L367.27 255.17L366.4 254.67L365.54 254.14L364.68 253.61L363.84 253.05L363.01 252.49L362.19 251.91L361.38 251.31L360.58 250.7L359.79 250.08L359.02 249.45L358.25 248.8L357.5 248.13L356.75 248.8L355.98 249.45L355.2 250.08L354.42 250.7L353.62 251.31L352.81 251.91L351.99 252.49L351.16 253.05L350.31 253.61L349.46 254.14L348.6 254.67L347.73 255.17L346.85 255.66L345.95 256.14L345.05 256.6L344.14 257.05L343.22 257.47L342.29 257.89L341.36 258.28L340.41 258.66L339.46 259.03L338.5 259.37L337.53 259.7L336.55 260.01L335.56 260.31L334.57 260.58L333.57 260.84L332.57 261.08L331.55 261.31L330.53 261.51L329.5 261.7L328.47 261.86L327.43 262.01L326.39 262.14L325.34 262.25L324.28 262.34L323.22 262.41L322.15 262.46L321.08 262.49L320 262.5L317.68 262.45L315.39 262.31L313.13 262.08L310.89 261.76L308.68 261.36L306.5 260.86L304.35 260.29L302.24 259.63L300.16 258.89L298.13 258.07L296.13 257.18L294.17 256.21L292.26 255.17L290.39 254.06L288.57 252.88L286.8 251.63L285.08 250.32L283.41 248.94L281.8 247.5L280.24 246.01L278.75 244.45L277.31 242.84L275.93 241.17L274.62 239.45L273.37 237.68L272.19 235.86L271.08 233.99L270.04 232.08L269.07 230.12L268.18 228.12L267.36 226.09L266.62 224.01L265.96 221.9L265.39 219.75L264.89 217.57L264.49 215.36L264.17 213.12L263.94 210.86L263.8 208.57L263.75 206.25L263.8 203.93L263.94 201.64L264.17 199.38L264.49 197.14L264.89 194.93L265.39 192.75L265.96 190.6L266.62 188.49L267.36 186.41L268.18 184.38L269.07 182.38L270.04 180.42L271.08 178.51L272.19 176.64L273.37 174.82L274.62 173.05L275.93 171.33L277.31 169.66L278.75 168.05L280.24 166.49L281.8 165L283.41 163.56L285.08 162.18L286.8 160.87L288.57 159.62L290.39 158.44L292.26 157.33L294.17 156.29L296.13 155.32L298.13 154.43L300.16 153.61L302.24 152.87L304.35 152.21L306.5 151.64L308.68 151.14L310.89 150.74L313.13 150.42L315.39 150.19L317.68 150.05L320 150L322.32 150.05L324.61 150.19L326.87 150.42L329.11 150.74L331.32 151.14L333.5 151.64L335.65 152.21L337.76 152.87L339.84 153.61L341.87 154.43L343.87 155.32L345.83 156.29L347.74 157.33L349.61 158.44L351.43 159.62L353.2 160.87L354.92 162.18L356.59 163.56L358.2 165L359.76 166.49L361.25 168.05L362.69 169.66L364.07 171.33L365.38 173.05L366.63 174.82L367.81 176.64L368.92 178.51L369.96 180.42L370.93 182.38L371.82 184.38L372.64 186.41L373.38 188.49L374.04 190.6L374.61 192.75L375.11 194.93L375.51 197.14L375.83 199.38L376.06 201.64L376.2 203.93L376.25 206.25L376.25 206.31L376.25 206.34L376.25 206.36L376.25 206.39L376.25 206.41L376.25 206.46L376.25 206.51L376.25 206.54L376.3 207.37L376.39 208.2L376.5 209.01L376.64 209.8L376.81 210.57L377 211.33L377.23 212.07L377.48 212.79L377.75 213.5L378.05 214.19L378.38 214.86L378.73 215.51L379.1 216.14L379.49 216.75L379.9 217.34L380.34 217.92L380.79 218.47L381.26 219L381.75 219.51L382.26 220.01L382.79 220.47L383.33 220.92L383.88 221.35L384.46 221.75L385.04 222.14L385.64 222.5L386.25 222.83L386.87 223.15L387.51 223.44L388.15 223.7L388.81 223.95L389.47 224.16L390.14 224.36L390.82 224.53L391.5 224.67L392.19 224.79L392.89 224.88L393.59 224.95L394.29 224.99L395 225L395.77 224.98L396.54 224.94L397.29 224.86L398.04 224.75L398.77 224.62L399.5 224.45L400.22 224.26L400.92 224.04L401.61 223.8L402.29 223.52L402.96 223.23L403.61 222.9L404.25 222.56L404.87 222.19L405.48 221.79L406.07 221.38L406.64 220.94L407.2 220.48L407.73 220L408.25 219.5L408.75 218.98L409.23 218.45L409.69 217.89L410.13 217.32L410.54 216.73L410.94 216.12L411.31 215.5L411.65 214.86L411.98 214.21L412.27 213.54L412.55 212.86L412.79 212.17L413.01 211.47L413.2 210.75L413.37 210.02L413.5 209.29L413.61 208.54L413.69 207.79L413.73 207.02L413.75 206.25L413.67 202.39L413.44 198.57L413.05 194.8L412.52 191.06L411.84 187.38L411.02 183.75L410.06 180.17L408.96 176.65L407.73 173.19L406.37 169.79L404.88 166.46L403.27 163.2L401.54 160.02L399.68 156.9L397.72 153.87L395.64 150.92L393.45 148.05L391.15 145.27L388.76 142.58L386.26 139.99L383.67 137.49L380.98 135.1L378.2 132.8L375.33 130.61L372.38 128.53L369.35 126.57L366.23 124.71L363.05 122.98L359.79 121.37L356.46 119.88L353.06 118.52L349.6 117.29L346.08 116.19L342.5 115.23L338.87 114.41L335.19 113.73L331.45 113.2L327.68 112.81L323.86 112.58L320 112.5L316.14 112.58L312.32 112.81L308.55 113.2L304.81 113.73L301.13 114.41L297.5 115.23L293.92 116.19L290.4 117.29L286.94 118.52L283.54 119.88L280.21 121.37L276.95 122.98L273.77 124.71L270.65 126.57L267.62 128.53L264.67 130.61L261.8 132.8L259.02 135.1L256.33 137.49L253.74 139.99L251.24 142.58L248.85 145.27L246.55 148.05L244.36 150.92L242.28 153.87L240.32 156.9L238.46 160.02L236.73 163.2L235.12 166.46L233.63 169.79L232.27 173.19L231.04 176.65L229.94 180.17L228.98 183.75L228.16 187.38L227.48 191.06L226.95 194.8L226.56 198.57L226.33 202.39L226.25 206.25L226.28 208.65L226.37 211.04L226.52 213.42L226.73 215.79L227 218.14L227.33 220.48L227.71 222.81L228.15 225.12L228.65 227.41L229.21 229.69L229.82 231.94L230.48 234.18L231.2 236.4L231.98 238.59L232.81 240.77L233.69 242.92L234.62 245.04L235.61 247.14L236.65 249.22L237.74 251.27L238.88 253.29L240.08 255.28L241.32 257.24L242.61 259.18L243.95 261.08L245.34 262.95L246.78 264.79L248.26 266.59L249.79 268.36L251.37 270.09L252.99 271.79L254.66 273.45L256.37 275.07L258.13 276.65L259.94 278.19L261.78 279.69L263.67 281.15L265.6 282.56L267.57 283.93L269.59 285.26L271.69 286.56L273.81 287.81L275.96 289L278.12 290.12L280.31 291.18L282.52 292.19L284.76 293.13L287.01 294.01L289.28 294.83L291.56 295.59L293.86 296.29L296.18 296.93L298.52 297.51L300.87 298.02L303.23 298.48L305.6 298.87L307.99 299.2L310.39 299.48L312.79 299.69L315.21 299.84L317.64 299.92L320.07 299.95L322.51 299.92L324.95 299.82L327.4 299.66L329.86 299.44L332.32 299.16L334.78 298.82L337.24 298.42L339.71 297.95L342.17 297.42L344.63 296.83L347.1 296.18L349.55 295.47L352.01 294.7L354.46 293.86L356.91 292.96L359.35 292L361.79 290.98L364.22 289.89L364.93 289.59L365.64 289.31L366.36 289.06L367.08 288.85L367.81 288.66L368.54 288.51L369.27 288.38L370 288.29L370.73 288.22L371.46 288.18L372.19 288.18L372.92 288.2L373.64 288.24L374.36 288.32L375.08 288.42L375.79 288.55L376.49 288.71L377.19 288.9L377.88 289.11L378.56 289.34L379.23 289.61L379.89 289.89L380.54 290.21L381.17 290.55L381.8 290.91L382.41 291.29L383 291.71L383.59 292.14L384.15 292.6L384.7 293.08L385.23 293.58L385.74 294.11L386.24 294.66L386.71 295.23L387.16 295.82L387.59 296.43L388 297.07L388.39 297.72L388.75 298.4L389.09 299.09L389.4 299.8L389.67 300.52L389.92 301.23L390.14 301.96L390.32 302.68L390.48 303.41L390.6 304.14L390.7 304.88L390.76 305.61L390.8 306.34L390.81 307.07L390.79 307.8L390.74 308.52L390.66 309.24L390.56 309.95L390.43 310.66L390.27 311.37L390.09 312.06L389.88 312.75L389.64 313.43L389.38 314.1L389.09 314.76L388.78 315.41L388.44 316.05L388.08 316.67L387.69 317.28L387.28 317.88L386.84 318.46L386.39 319.03L385.91 319.57L385.4 320.1L384.88 320.62L384.33 321.11L383.76 321.58L383.16 322.04L382.55 322.47L381.92 322.88L381.26 323.26L380.59 323.63L379.89 323.96L376.57 325.44L373.24 326.84L369.89 328.15L366.54 329.38L363.18 330.51L359.81 331.57L356.44 332.53L353.06 333.41L349.68 334.21L346.3 334.92L342.91 335.55L339.53 336.08L336.14 336.54L332.76 336.91L329.38 337.19L326.01 337.39L322.64 337.5L319.28 337.53L315.92 337.48L312.58 337.34L309.25 337.11L305.92 336.8L302.61 336.41L299.32 335.93L296.03 335.36L292.77 334.72L289.52 333.98L286.29 333.17L283.08 332.27L279.89 331.28L276.72 330.21L273.57 329.06L270.45 327.83L267.35 326.51L264.28 325.1L261.24 323.62L258.22 322.05L255.24 320.39L252.28 318.65L249.36 316.83L246.54 314.98L243.78 313.06L241.08 311.08L238.44 309.04L235.86 306.94L233.34 304.79L230.88 302.58L228.48 300.31L226.15 297.99L223.88 295.62L221.67 293.19L219.53 290.72L217.46 288.19L215.45 285.62L213.5 283.01L211.63 280.34L209.82 277.64L208.09 274.89L206.42 272.1L204.82 269.27L203.3 266.4L201.84 263.5L200.46 260.56L199.15 257.58L197.92 254.57L196.76 251.53L195.68 248.46L194.67 245.35L193.74 242.22L192.88 239.06L192.11 235.88L191.41 232.67L190.79 229.44L190.25 226.18L189.8 222.9L189.42 219.61L189.13 216.29L188.92 212.96L188.79 209.61L188.75 206.25L188.86 200.85L189.19 195.5L189.72 190.21L190.47 184.99L191.42 179.83L192.57 174.75L193.92 169.74L195.45 164.81L197.18 159.97L199.08 155.21L201.16 150.55L203.42 145.98L205.85 141.52L208.44 137.16L211.2 132.92L214.11 128.79L217.17 124.77L220.38 120.88L223.74 117.12L227.24 113.49L230.87 109.99L234.63 106.63L238.52 103.42L242.54 100.36L246.67 97.45L250.91 94.69L255.27 92.1L259.73 89.67L264.3 87.41L268.96 85.33L273.72 83.43L278.56 81.7L283.49 80.17L288.5 78.82L293.58 77.67L298.74 76.72L303.96 75.97L309.25 75.44L314.6 75.11L320 75L325.4 75.11L330.75 75.44ZM317.35 187.69L316.07 187.91L314.81 188.23L313.6 188.63L312.42 189.1L311.28 189.65L310.18 190.28L309.14 190.98L308.14 191.74L307.2 192.56L306.31 193.45L305.49 194.39L304.73 195.39L304.03 196.43L303.4 197.53L302.85 198.67L302.38 199.85L301.98 201.06L301.66 202.32L301.44 203.6L301.3 204.91L301.25 206.25L301.3 207.59L301.44 208.9L301.66 210.18L301.98 211.44L302.38 212.65L302.85 213.83L303.4 214.97L304.03 216.07L304.73 217.11L305.49 218.11L306.31 219.05L307.2 219.94L308.14 220.76L309.14 221.52L310.18 222.22L311.28 222.85L312.42 223.4L313.6 223.87L314.81 224.27L316.07 224.59L317.35 224.81L318.66 224.95L320 225L321.21 224.96L322.39 224.85L323.55 224.66L324.69 224.41L325.8 224.08L326.88 223.69L327.93 223.24L328.94 222.72L329.92 222.15L330.86 221.52L331.76 220.83L332.61 220.1L333.42 219.31L334.18 218.48L334.89 217.6L335.55 216.68L336.15 215.72L336.7 214.73L337.19 213.69L337.61 212.63L337.97 211.53L338.26 210.41L338.49 209.26L338.46 209.03L338.44 208.81L338.42 208.59L338.41 208.36L338.39 208.14L338.38 207.91L338.38 207.69L338.37 207.46L338.37 207.24L338.37 207.01L338.37 206.79L338.38 206.57L338.39 206.34L338.4 206.12L338.41 205.89L338.43 205.67L338.45 205.44L338.47 205.22L338.49 205L338.52 204.77L338.55 204.55L338.58 204.33L338.62 204.11L338.44 202.9L338.19 201.72L337.86 200.57L337.47 199.45L337 198.37L336.47 197.32L335.88 196.3L335.23 195.34L334.52 194.41L333.76 193.53L332.94 192.7L332.07 191.92L331.16 191.2L330.2 190.53L329.2 189.92L328.17 189.37L327.09 188.89L325.98 188.48L324.84 188.13L323.66 187.86L322.47 187.66L321.24 187.54L320 187.5L318.66 187.55L317.35 187.69Z" id="bpmpCBJId"></path><path d="M509.04 0.06L509.79 0.14L510.54 0.25L511.28 0.38L512.01 0.54L512.72 0.74L513.43 0.96L514.12 1.2L514.8 1.47L515.46 1.77L516.12 2.09L516.75 2.44L517.38 2.81L517.98 3.2L518.57 3.62L519.15 4.06L519.7 4.51L520.24 4.99L520.76 5.49L521.26 6.01L521.74 6.55L522.19 7.1L522.63 7.68L523.05 8.27L523.44 8.87L523.81 9.5L524.16 10.13L524.48 10.79L524.78 11.45L525.05 12.13L525.29 12.82L525.51 13.53L525.71 14.24L525.87 14.97L526 15.71L526.11 16.46L526.19 17.21L526.23 17.98L526.25 18.75L526.25 163.48L595.76 232.99L596.02 233.26L596.28 233.53L596.53 233.81L596.77 234.09L597.01 234.38L597.24 234.67L597.47 234.96L597.69 235.26L597.9 235.56L598.11 235.87L598.31 236.18L598.5 236.49L598.69 236.81L598.87 237.13L599.05 237.45L599.22 237.78L599.38 238.11L599.53 238.44L599.68 238.77L599.83 239.11L599.96 239.45L600.09 239.8L600.22 240.14L600.33 240.49L600.44 240.84L600.54 241.19L600.64 241.54L600.73 241.89L600.81 242.25L600.89 242.6L600.95 242.96L601.01 243.32L601.07 243.68L601.12 244.04L601.16 244.4L601.19 244.77L601.21 245.13L601.23 245.49L601.24 245.86L601.25 246.22L601.25 246.23L601.25 246.26L601.25 583.75L601.2 586.06L601.06 588.35L600.83 590.62L600.51 592.86L600.11 595.06L599.61 597.24L599.04 599.39L598.38 601.5L597.64 603.58L596.83 605.61L595.93 607.61L594.97 609.57L593.93 611.48L592.82 613.35L591.64 615.17L590.39 616.94L589.08 618.66L587.7 620.33L586.27 621.94L584.77 623.5L583.21 625L581.6 626.43L579.93 627.81L578.21 629.13L576.44 630.37L574.62 631.55L572.76 632.67L570.84 633.71L568.89 634.68L566.89 635.57L564.85 636.39L562.77 637.13L560.66 637.78L558.51 638.36L556.33 638.85L554.12 639.26L551.88 639.58L549.61 639.81L547.32 639.95L545 640L95 640L92.69 639.95L90.4 639.81L88.13 639.58L85.9 639.26L83.69 638.86L81.51 638.36L79.36 637.79L77.25 637.13L75.18 636.39L73.14 635.58L71.14 634.69L69.19 633.72L67.28 632.68L65.41 631.57L63.59 630.39L61.82 629.14L60.1 627.83L58.43 626.46L56.81 625.02L55.26 623.52L53.76 621.97L52.32 620.35L50.94 618.69L49.63 616.97L48.38 615.2L47.2 613.38L46.09 611.51L45.04 609.6L44.08 607.64L43.18 605.64L42.37 603.6L41.63 601.53L40.97 599.41L40.39 597.26L39.9 595.08L39.49 592.87L39.17 590.63L38.94 588.36L38.8 586.07L38.75 583.75L38.75 246.26L38.75 246.25L38.75 246.22L38.76 245.87L38.77 245.52L38.78 245.17L38.81 244.83L38.84 244.48L38.87 244.13L38.92 243.78L38.97 243.43L39.03 243.08L39.09 242.74L39.16 242.39L39.24 242.05L39.32 241.7L39.41 241.36L39.51 241.01L39.61 240.67L39.72 240.33L39.84 240L39.96 239.66L40.09 239.33L40.23 238.99L40.37 238.66L40.52 238.33L40.67 238.01L40.84 237.68L41.01 237.36L41.18 237.04L41.36 236.73L41.55 236.42L41.75 236.11L41.95 235.8L42.16 235.49L42.37 235.19L42.59 234.9L42.82 234.6L43.06 234.31L43.3 234.03L43.54 233.75L43.8 233.47L44.06 233.2L44.07 233.19L44.08 233.17L44.09 233.16L44.1 233.15L44.11 233.14L44.12 233.12L44.14 233.1L44.16 233.08L44.18 233.06L44.2 233.04L44.2 233.03L44.21 233.02L44.22 233.01L44.23 233L44.24 232.99L113.75 163.48L113.75 18.75L113.77 17.98L113.81 17.21L113.89 16.46L114 15.71L114.13 14.97L114.29 14.24L114.49 13.53L114.71 12.82L114.95 12.13L115.22 11.45L115.52 10.79L115.84 10.13L116.19 9.5L116.56 8.87L116.95 8.27L117.37 7.68L117.81 7.1L118.26 6.55L118.74 6.01L119.24 5.49L119.76 4.99L120.3 4.51L120.85 4.06L121.43 3.62L122.02 3.2L122.62 2.81L123.25 2.44L123.88 2.09L124.54 1.77L125.2 1.47L125.88 1.2L126.57 0.96L127.28 0.74L127.99 0.54L128.72 0.38L129.46 0.25L130.21 0.14L130.96 0.06L131.73 0.02L132.5 0L507.5 0L508.27 0.02L509.04 0.06ZM102.77 602.5L537.23 602.5L387.23 452.5L252.77 452.5L102.77 602.5ZM563.75 575.98L563.75 291.52L421.52 433.75L563.75 575.98ZM218.48 433.75L76.25 291.52L76.25 575.98L218.48 433.75ZM151.25 313.48L252.77 415L387.23 415L488.75 313.48L488.75 37.5L151.25 37.5L151.25 313.48ZM555.98 246.25L526.25 216.52L526.25 275.98L555.98 246.25ZM113.75 275.98L113.75 216.52L84.02 246.25L113.75 275.98Z" id="c1OHPu7vo6"></path></defs><g><g><use xlink:href="#bpmpCBJId" opacity="1" fill="#ffffff" fill-opacity="1"></use><g><use xlink:href="#bpmpCBJId" opacity="1" fill-opacity="0" stroke="#000000" stroke-width="1" stroke-opacity="0"></use></g></g><g><use xlink:href="#c1OHPu7vo6" opacity="1" fill="#ffffff" fill-opacity="1"></use><g><use xlink:href="#c1OHPu7vo6" opacity="1" fill-opacity="0" stroke="#000000" stroke-width="1" stroke-opacity="0"></use></g></g></g></svg>